<mxfile host="app.diagrams.net" modified="2023-01-17T00:42:54.359Z" agent="5.0 (Windows)" version="20.8.3" etag="qxm6gbE5ZzXHkLpMhUQ7" type="github">
  <diagram id="F2zN1XWDJCxbZWkZuF5S" name="Página-1">
    <mxGraphModel dx="712" dy="519" grid="1" gridSize="10" guides="1" tooltips="1" connect="1" arrows="1" fold="1" page="1" pageScale="1" pageWidth="827" pageHeight="1169" math="0" shadow="0">
      <root>
        <mxCell id="0" />
        <mxCell id="1" parent="0" />
        <mxCell id="l5w-JMVzP2Q6S9-00Q8j-1" value="" style="ellipse;html=1;shape=startState;fillColor=#000000;strokeColor=#ff0000;" vertex="1" parent="1">
          <mxGeometry x="185" y="90" width="30" height="30" as="geometry" />
        </mxCell>
        <mxCell id="l5w-JMVzP2Q6S9-00Q8j-2" value="" style="edgeStyle=orthogonalEdgeStyle;html=1;verticalAlign=bottom;endArrow=open;endSize=8;strokeColor=#ff0000;rounded=0;entryX=0.5;entryY=0;entryDx=0;entryDy=0;" edge="1" source="l5w-JMVzP2Q6S9-00Q8j-1" parent="1" target="l5w-JMVzP2Q6S9-00Q8j-8">
          <mxGeometry relative="1" as="geometry">
            <mxPoint x="165" y="180" as="targetPoint" />
          </mxGeometry>
        </mxCell>
        <mxCell id="l5w-JMVzP2Q6S9-00Q8j-3" value="" style="ellipse;html=1;shape=endState;fillColor=#000000;strokeColor=#ff0000;" vertex="1" parent="1">
          <mxGeometry x="650" y="240" width="30" height="30" as="geometry" />
        </mxCell>
        <mxCell id="l5w-JMVzP2Q6S9-00Q8j-5" value="ExibindoLivros" style="swimlane;childLayout=stackLayout;horizontal=1;startSize=30;horizontalStack=0;rounded=1;fontSize=14;fontStyle=0;strokeWidth=2;resizeParent=0;resizeLast=1;shadow=0;dashed=0;align=center;" vertex="1" parent="1">
          <mxGeometry x="364" y="400" width="160" height="70" as="geometry">
            <mxRectangle x="364" y="400" width="130" height="30" as="alternateBounds" />
          </mxGeometry>
        </mxCell>
        <mxCell id="l5w-JMVzP2Q6S9-00Q8j-6" value="entry / apresentarLivros()" style="align=left;strokeColor=none;fillColor=none;spacingLeft=4;fontSize=12;verticalAlign=top;resizable=0;rotatable=0;part=1;" vertex="1" parent="l5w-JMVzP2Q6S9-00Q8j-5">
          <mxGeometry y="30" width="160" height="40" as="geometry" />
        </mxCell>
        <mxCell id="l5w-JMVzP2Q6S9-00Q8j-16" value="entry / apresentarLivros()" style="align=left;strokeColor=none;fillColor=none;spacingLeft=4;fontSize=12;verticalAlign=top;resizable=0;rotatable=0;part=1;" vertex="1" parent="l5w-JMVzP2Q6S9-00Q8j-5">
          <mxGeometry y="70" width="160" as="geometry" />
        </mxCell>
        <mxCell id="l5w-JMVzP2Q6S9-00Q8j-11" value="Livro encontrados" style="edgeStyle=orthogonalEdgeStyle;rounded=0;orthogonalLoop=1;jettySize=auto;html=1;exitX=0.5;exitY=1;exitDx=0;exitDy=0;entryX=0.5;entryY=0;entryDx=0;entryDy=0;" edge="1" parent="1" source="l5w-JMVzP2Q6S9-00Q8j-7" target="l5w-JMVzP2Q6S9-00Q8j-5">
          <mxGeometry relative="1" as="geometry">
            <Array as="points">
              <mxPoint x="444" y="340" />
              <mxPoint x="444" y="340" />
            </Array>
          </mxGeometry>
        </mxCell>
        <mxCell id="l5w-JMVzP2Q6S9-00Q8j-12" style="edgeStyle=orthogonalEdgeStyle;rounded=0;orthogonalLoop=1;jettySize=auto;html=1;exitX=1;exitY=0.5;exitDx=0;exitDy=0;entryX=0;entryY=0.5;entryDx=0;entryDy=0;" edge="1" parent="1" source="l5w-JMVzP2Q6S9-00Q8j-7" target="l5w-JMVzP2Q6S9-00Q8j-3">
          <mxGeometry relative="1" as="geometry" />
        </mxCell>
        <mxCell id="l5w-JMVzP2Q6S9-00Q8j-13" value="Livros não encontrados" style="edgeLabel;html=1;align=center;verticalAlign=middle;resizable=0;points=[];" vertex="1" connectable="0" parent="l5w-JMVzP2Q6S9-00Q8j-12">
          <mxGeometry x="-0.241" y="-4" relative="1" as="geometry">
            <mxPoint x="23" y="-4" as="offset" />
          </mxGeometry>
        </mxCell>
        <mxCell id="l5w-JMVzP2Q6S9-00Q8j-7" value="" style="rhombus;whiteSpace=wrap;html=1;" vertex="1" parent="1">
          <mxGeometry x="404" y="215" width="80" height="80" as="geometry" />
        </mxCell>
        <mxCell id="l5w-JMVzP2Q6S9-00Q8j-10" style="edgeStyle=orthogonalEdgeStyle;rounded=0;orthogonalLoop=1;jettySize=auto;html=1;exitX=1;exitY=0.5;exitDx=0;exitDy=0;" edge="1" parent="1" source="l5w-JMVzP2Q6S9-00Q8j-8" target="l5w-JMVzP2Q6S9-00Q8j-7">
          <mxGeometry relative="1" as="geometry" />
        </mxCell>
        <mxCell id="l5w-JMVzP2Q6S9-00Q8j-8" value="BuscandoLivros" style="swimlane;childLayout=stackLayout;horizontal=1;startSize=30;horizontalStack=0;rounded=1;fontSize=14;fontStyle=0;strokeWidth=2;resizeParent=0;resizeLast=1;shadow=0;dashed=0;align=center;" vertex="1" parent="1">
          <mxGeometry x="120" y="220" width="160" height="70" as="geometry">
            <mxRectangle x="120" y="220" width="120" height="30" as="alternateBounds" />
          </mxGeometry>
        </mxCell>
        <mxCell id="l5w-JMVzP2Q6S9-00Q8j-9" value="do / ConsultarLivros(filtro)" style="align=left;strokeColor=none;fillColor=none;spacingLeft=4;fontSize=12;verticalAlign=top;resizable=0;rotatable=0;part=1;" vertex="1" parent="l5w-JMVzP2Q6S9-00Q8j-8">
          <mxGeometry y="30" width="160" height="40" as="geometry" />
        </mxCell>
        <mxCell id="l5w-JMVzP2Q6S9-00Q8j-15" style="edgeStyle=orthogonalEdgeStyle;rounded=0;orthogonalLoop=1;jettySize=auto;html=1;exitX=1;exitY=0.25;exitDx=0;exitDy=0;entryX=0.5;entryY=1;entryDx=0;entryDy=0;" edge="1" parent="1" source="l5w-JMVzP2Q6S9-00Q8j-6" target="l5w-JMVzP2Q6S9-00Q8j-3">
          <mxGeometry relative="1" as="geometry" />
        </mxCell>
      </root>
    </mxGraphModel>
  </diagram>
</mxfile>
